{
  "asset": {
    "version": "2.0",
    "generator": "THREE.GLTFExporter"
  },
  "scenes": [
    {
      "nodes": [
        3
      ],
      "name": "AuxScene"
    }
  ],
  "scene": 0,
  "nodes": [
    {
      "rotation": [
        -0.7071068286895752,
        0,
        0,
        0.7071067094802856
      ],
      "scale": [
        8.203771591186523,
        8.203771591186523,
        8.203771591186523
      ],
      "name": "GreenButton",
      "mesh": 0
    },
    {
      "rotation": [
        -0.7071068387877039,
        0,
        0,
        0.7071067235853865
      ],
      "scale": [
        8.203771591186523,
        8.203771591186523,
        8.203771591186523
      ],
      "name": "RedButton",
      "mesh": 1
    },
    {
      "rotation": [
        -0.7071068387877039,
        0,
        0,
        0.7071067235853865
      ],
      "scale": [
        8.203771591186523,
        8.203771591186523,
        8.203771591186523
      ],
      "name": "Cube",
      "mesh": 2
    },
    {
      "children": [
        0,
        1,
        2
      ]
    }
  ],
  "bufferViews": [
    {
      "buffer": 0,
      "byteOffset": 0,
      "byteLength": 11376,
      "target": 34962,
      "byteStride": 12
    },
    {
      "buffer": 0,
      "byteOffset": 11376,
      "byteLength": 11376,
      "target": 34962,
      "byteStride": 12
    },
    {
      "buffer": 0,
      "byteOffset": 22752,
      "byteLength": 7584,
      "target": 34962,
      "byteStride": 8
    },
    {
      "buffer": 0,
      "byteOffset": 30336,
      "byteLength": 1896,
      "target": 34963
    },
    {
      "buffer": 0,
      "byteOffset": 32232,
      "byteLength": 11376,
      "target": 34962,
      "byteStride": 12
    },
    {
      "buffer": 0,
      "byteOffset": 43608,
      "byteLength": 11376,
      "target": 34962,
      "byteStride": 12
    },
    {
      "buffer": 0,
      "byteOffset": 54984,
      "byteLength": 7584,
      "target": 34962,
      "byteStride": 8
    },
    {
      "buffer": 0,
      "byteOffset": 62568,
      "byteLength": 1896,
      "target": 34963
    },
    {
      "buffer": 0,
      "byteOffset": 64464,
      "byteLength": 20304,
      "target": 34962,
      "byteStride": 12
    },
    {
      "buffer": 0,
      "byteOffset": 84768,
      "byteLength": 20304,
      "target": 34962,
      "byteStride": 12
    },
    {
      "buffer": 0,
      "byteOffset": 105072,
      "byteLength": 13536,
      "target": 34962,
      "byteStride": 8
    },
    {
      "buffer": 0,
      "byteOffset": 118608,
      "byteLength": 3384,
      "target": 34963
    },
    {
      "buffer": 0,
      "byteOffset": 121992,
      "byteLength": 48
    },
    {
      "buffer": 0,
      "byteOffset": 122040,
      "byteLength": 144
    },
    {
      "buffer": 0,
      "byteOffset": 122184,
      "byteLength": 8
    },
    {
      "buffer": 0,
      "byteOffset": 122192,
      "byteLength": 32
    },
    {
      "buffer": 0,
      "byteOffset": 122224,
      "byteLength": 8
    },
    {
      "buffer": 0,
      "byteOffset": 122232,
      "byteLength": 24
    },
    {
      "buffer": 0,
      "byteOffset": 122256,
      "byteLength": 48
    },
    {
      "buffer": 0,
      "byteOffset": 122304,
      "byteLength": 144
    },
    {
      "buffer": 0,
      "byteOffset": 122448,
      "byteLength": 8
    },
    {
      "buffer": 0,
      "byteOffset": 122456,
      "byteLength": 32
    },
    {
      "buffer": 0,
      "byteOffset": 122488,
      "byteLength": 8
    },
    {
      "buffer": 0,
      "byteOffset": 122496,
      "byteLength": 24
    },
    {
      "buffer": 0,
      "byteOffset": 122520,
      "byteLength": 48
    },
    {
      "buffer": 0,
      "byteOffset": 122568,
      "byteLength": 144
    },
    {
      "buffer": 0,
      "byteOffset": 122712,
      "byteLength": 8
    },
    {
      "buffer": 0,
      "byteOffset": 122720,
      "byteLength": 32
    },
    {
      "buffer": 0,
      "byteOffset": 122752,
      "byteLength": 8
    },
    {
      "buffer": 0,
      "byteOffset": 122760,
      "byteLength": 24
    },
    {
      "buffer": 0,
      "byteOffset": 122784,
      "byteLength": 48
    },
    {
      "buffer": 0,
      "byteOffset": 122832,
      "byteLength": 144
    },
    {
      "buffer": 0,
      "byteOffset": 122976,
      "byteLength": 8
    },
    {
      "buffer": 0,
      "byteOffset": 122984,
      "byteLength": 32
    },
    {
      "buffer": 0,
      "byteOffset": 123016,
      "byteLength": 8
    },
    {
      "buffer": 0,
      "byteOffset": 123024,
      "byteLength": 24
    }
  ],
  "buffers": [
    {
      "byteLength": 123048,
      "uri": "data:application/octet-stream;base64,"
    }
  ],
  "accessors": [
    {
      "bufferView": 0,
      "componentType": 5126,
      "count": 948,
      "max": [
        0.5338684916496277,
        2.041797637939453,
        20.9874324798584
      ],
      "min": [
        -0.47302955389022827,
        1.1051216125488281,
        20.124502182006836
      ],
      "type": "VEC3"
    },
    {
      "bufferView": 1,
      "componentType": 5126,
      "count": 948,
      "max": [
        0.8506729602813721,
        0.9870296120643616,
        0.9545274376869202
      ],
      "min": [
        -0.8506729602813721,
        -0.9991455078125,
        -0.9949339032173157
      ],
      "type": "VEC3"
    },
    {
      "bufferView": 2,
      "componentType": 5126,
      "count": 948,
      "max": [
        0.999924898147583,
        0.5635855793952942
      ],
      "min": [
        0.00007506171095883474,
        0.00007506171095883474
      ],
      "type": "VEC2"
    },
    {
      "bufferView": 3,
      "componentType": 5123,
      "count": 948,
      "max": [
        947
      ],
      "min": [
        0
      ],
      "type": "SCALAR"
    },
    {
      "bufferView": 4,
      "componentType": 5126,
      "count": 948,
      "max": [
        0.522258460521698,
        3.6111645698547363,
        19.663869857788086
      ],
      "min": [
        -0.48463958501815796,
        2.6744885444641113,
        18.80093765258789
      ],
      "type": "VEC3"
    },
    {
      "bufferView": 5,
      "componentType": 5126,
      "count": 948,
      "max": [
        0.8506729602813721,
        0.9870296120643616,
        0.9545274376869202
      ],
      "min": [
        -0.8507034778594971,
        -0.9991455078125,
        -0.9949339032173157
      ],
      "type": "VEC3"
    },
    {
      "bufferView": 6,
      "componentType": 5126,
      "count": 948,
      "max": [
        0.9999265670776367,
        0.5397781133651733
      ],
      "min": [
        0.00007345919584622607,
        0.00007345919584622607
      ],
      "type": "VEC2"
    },
    {
      "bufferView": 7,
      "componentType": 5123,
      "count": 948,
      "max": [
        947
      ],
      "min": [
        0
      ],
      "type": "SCALAR"
    },
    {
      "bufferView": 8,
      "componentType": 5126,
      "count": 1692,
      "max": [
        1.9261071681976318,
        4.331266403198242,
        21.525667190551758
      ],
      "min": [
        -1.9261071681976318,
        -1.3500711917877197,
        -0.0000019073486328125
      ],
      "type": "VEC3"
    },
    {
      "bufferView": 9,
      "componentType": 5126,
      "count": 1692,
      "max": [
        1,
        1,
        0.999267578125
      ],
      "min": [
        -1,
        -0.9999999403953552,
        -1
      ],
      "type": "VEC3"
    },
    {
      "bufferView": 10,
      "componentType": 5126,
      "count": 1692,
      "max": [
        0.6440491080284119,
        0.999907910823822
      ],
      "min": [
        0.00009218363265972584,
        0.00009218363265972584
      ],
      "type": "VEC2"
    },
    {
      "bufferView": 11,
      "componentType": 5123,
      "count": 1692,
      "max": [
        1691
      ],
      "min": [
        0
      ],
      "type": "SCALAR"
    },
    {
      "bufferView": 12,
      "componentType": 5126,
      "count": 12,
      "max": [
        1.6666666269302368
      ],
      "min": [
        0
      ],
      "type": "SCALAR"
    },
    {
      "bufferView": 13,
      "componentType": 5126,
      "count": 12,
      "max": [
        0,
        0,
        0.8265089392662048
      ],
      "min": [
        0,
        -0.901646077632904,
        0
      ],
      "type": "VEC3"
    },
    {
      "bufferView": 14,
      "componentType": 5126,
      "count": 2,
      "max": [
        1.6666666269302368
      ],
      "min": [
        0
      ],
      "type": "SCALAR"
    },
    {
      "bufferView": 15,
      "componentType": 5126,
      "count": 2,
      "max": [
        -0.7071068286895752,
        0,
        0,
        0.7071067094802856
      ],
      "min": [
        -0.7071068286895752,
        0,
        0,
        0.7071067094802856
      ],
      "type": "VEC4"
    },
    {
      "bufferView": 16,
      "componentType": 5126,
      "count": 2,
      "max": [
        1.6666666269302368
      ],
      "min": [
        0
      ],
      "type": "SCALAR"
    },
    {
      "bufferView": 17,
      "componentType": 5126,
      "count": 2,
      "max": [
        8.203771591186523,
        8.203771591186523,
        8.203771591186523
      ],
      "min": [
        8.203771591186523,
        8.203771591186523,
        8.203771591186523
      ],
      "type": "VEC3"
    },
    {
      "bufferView": 18,
      "componentType": 5126,
      "count": 12,
      "max": [
        2.9166667461395264
      ],
      "min": [
        0
      ],
      "type": "SCALAR"
    },
    {
      "bufferView": 19,
      "componentType": 5126,
      "count": 12,
      "max": [
        0,
        0,
        0.8265089392662048
      ],
      "min": [
        0,
        -0.901646077632904,
        0
      ],
      "type": "VEC3"
    },
    {
      "bufferView": 20,
      "componentType": 5126,
      "count": 2,
      "max": [
        2.9166667461395264
      ],
      "min": [
        0
      ],
      "type": "SCALAR"
    },
    {
      "bufferView": 21,
      "componentType": 5126,
      "count": 2,
      "max": [
        -0.7071068286895752,
        0,
        0,
        0.7071067094802856
      ],
      "min": [
        -0.7071068286895752,
        0,
        0,
        0.7071067094802856
      ],
      "type": "VEC4"
    },
    {
      "bufferView": 22,
      "componentType": 5126,
      "count": 2,
      "max": [
        2.9166667461395264
      ],
      "min": [
        0
      ],
      "type": "SCALAR"
    },
    {
      "bufferView": 23,
      "componentType": 5126,
      "count": 2,
      "max": [
        8.203771591186523,
        8.203771591186523,
        8.203771591186523
      ],
      "min": [
        8.203771591186523,
        8.203771591186523,
        8.203771591186523
      ],
      "type": "VEC3"
    },
    {
      "bufferView": 24,
      "componentType": 5126,
      "count": 12,
      "max": [
        2.9166667461395264
      ],
      "min": [
        0
      ],
      "type": "SCALAR"
    },
    {
      "bufferView": 25,
      "componentType": 5126,
      "count": 12,
      "max": [
        0,
        0,
        0.8265089392662048
      ],
      "min": [
        0,
        -0.901646077632904,
        0
      ],
      "type": "VEC3"
    },
    {
      "bufferView": 26,
      "componentType": 5126,
      "count": 2,
      "max": [
        2.9166667461395264
      ],
      "min": [
        0
      ],
      "type": "SCALAR"
    },
    {
      "bufferView": 27,
      "componentType": 5126,
      "count": 2,
      "max": [
        -0.7071068286895752,
        0,
        0,
        0.7071067094802856
      ],
      "min": [
        -0.7071068286895752,
        0,
        0,
        0.7071067094802856
      ],
      "type": "VEC4"
    },
    {
      "bufferView": 28,
      "componentType": 5126,
      "count": 2,
      "max": [
        2.9166667461395264
      ],
      "min": [
        0
      ],
      "type": "SCALAR"
    },
    {
      "bufferView": 29,
      "componentType": 5126,
      "count": 2,
      "max": [
        8.203771591186523,
        8.203771591186523,
        8.203771591186523
      ],
      "min": [
        8.203771591186523,
        8.203771591186523,
        8.203771591186523
      ],
      "type": "VEC3"
    },
    {
      "bufferView": 30,
      "componentType": 5126,
      "count": 12,
      "max": [
        1.6666666269302368
      ],
      "min": [
        0
      ],
      "type": "SCALAR"
    },
    {
      "bufferView": 31,
      "componentType": 5126,
      "count": 12,
      "max": [
        0,
        0,
        0.8265089392662048
      ],
      "min": [
        0,
        -0.901646077632904,
        0
      ],
      "type": "VEC3"
    },
    {
      "bufferView": 32,
      "componentType": 5126,
      "count": 2,
      "max": [
        1.6666666269302368
      ],
      "min": [
        0
      ],
      "type": "SCALAR"
    },
    {
      "bufferView": 33,
      "componentType": 5126,
      "count": 2,
      "max": [
        -0.7071068286895752,
        0,
        0,
        0.7071067094802856
      ],
      "min": [
        -0.7071068286895752,
        0,
        0,
        0.7071067094802856
      ],
      "type": "VEC4"
    },
    {
      "bufferView": 34,
      "componentType": 5126,
      "count": 2,
      "max": [
        1.6666666269302368
      ],
      "min": [
        0
      ],
      "type": "SCALAR"
    },
    {
      "bufferView": 35,
      "componentType": 5126,
      "count": 2,
      "max": [
        8.203771591186523,
        8.203771591186523,
        8.203771591186523
      ],
      "min": [
        8.203771591186523,
        8.203771591186523,
        8.203771591186523
      ],
      "type": "VEC3"
    }
  ],
  "materials": [
    {
      "pbrMetallicRoughness": {
        "baseColorFactor": [
          0.01775977574288845,
          0.4109034538269043,
          0,
          1
        ],
        "metallicFactor": 0.5,
        "roughnessFactor": 0.5
      },
      "name": "GreenButton"
    },
    {
      "pbrMetallicRoughness": {
        "baseColorFactor": [
          0.41090336441993713,
          0.017015835270285606,
          0,
          1
        ],
        "metallicFactor": 0.5,
        "roughnessFactor": 0.5
      },
      "name": "RedButton"
    },
    {
      "pbrMetallicRoughness": {
        "baseColorFactor": [
          0.800000011920929,
          0.800000011920929,
          0.800000011920929,
          1
        ],
        "metallicFactor": 0.5,
        "roughnessFactor": 0.5,
        "baseColorTexture": {
          "index": 0
        }
      },
      "name": "ControlPanel"
    }
  ],
  "meshes": [
    {
      "primitives": [
        {
          "mode": 4,
          "attributes": {
            "POSITION": 0,
            "NORMAL": 1,
            "TEXCOORD_0": 2
          },
          "indices": 3,
          "material": 0
        }
      ]
    },
    {
      "primitives": [
        {
          "mode": 4,
          "attributes": {
            "POSITION": 4,
            "NORMAL": 5,
            "TEXCOORD_0": 6
          },
          "indices": 7,
          "material": 1
        }
      ]
    },
    {
      "primitives": [
        {
          "mode": 4,
          "attributes": {
            "POSITION": 8,
            "NORMAL": 9,
            "TEXCOORD_0": 10
          },
          "indices": 11,
          "material": 2
        }
      ]
    }
  ],
  "textures": [
    {
      "sampler": 0,
      "source": 0
    }
  ],
  "samplers": [
    {
      "magFilter": 9729,
      "minFilter": 9987
    }
  ],
  "images": [
    {
      "mimeType": "image/png",
      "uri": "data:image/png;base64,"
    }
  ],
  "animations": [
    {
      "name": "GreenButton|GreenButtonAction",
      "samplers": [
        {
          "input": 12,
          "output": 13,
          "interpolation": "LINEAR"
        },
        {
          "input": 14,
          "output": 15,
          "interpolation": "LINEAR"
        },
        {
          "input": 16,
          "output": 17,
          "interpolation": "LINEAR"
        }
      ],
      "channels": [
        {
          "sampler": 0,
          "target": {
            "node": 0,
            "path": "translation"
          }
        },
        {
          "sampler": 1,
          "target": {
            "node": 0,
            "path": "rotation"
          }
        },
        {
          "sampler": 2,
          "target": {
            "node": 0,
            "path": "scale"
          }
        }
      ]
    },
    {
      "name": "GreenButton|RedButtonAction",
      "samplers": [
        {
          "input": 18,
          "output": 19,
          "interpolation": "LINEAR"
        },
        {
          "input": 20,
          "output": 21,
          "interpolation": "LINEAR"
        },
        {
          "input": 22,
          "output": 23,
          "interpolation": "LINEAR"
        }
      ],
      "channels": [
        {
          "sampler": 0,
          "target": {
            "node": 0,
            "path": "translation"
          }
        },
        {
          "sampler": 1,
          "target": {
            "node": 0,
            "path": "rotation"
          }
        },
        {
          "sampler": 2,
          "target": {
            "node": 0,
            "path": "scale"
          }
        }
      ]
    },
    {
      "name": "RedButton|RedButtonAction",
      "samplers": [
        {
          "input": 24,
          "output": 25,
          "interpolation": "LINEAR"
        },
        {
          "input": 26,
          "output": 27,
          "interpolation": "LINEAR"
        },
        {
          "input": 28,
          "output": 29,
          "interpolation": "LINEAR"
        }
      ],
      "channels": [
        {
          "sampler": 0,
          "target": {
            "node": 1,
            "path": "translation"
          }
        },
        {
          "sampler": 1,
          "target": {
            "node": 1,
            "path": "rotation"
          }
        },
        {
          "sampler": 2,
          "target": {
            "node": 1,
            "path": "scale"
          }
        }
      ]
    },
    {
      "name": "RedButton|GreenButtonAction",
      "samplers": [
        {
          "input": 30,
          "output": 31,
          "interpolation": "LINEAR"
        },
        {
          "input": 32,
          "output": 33,
          "interpolation": "LINEAR"
        },
        {
          "input": 34,
          "output": 35,
          "interpolation": "LINEAR"
        }
      ],
      "channels": [
        {
          "sampler": 0,
          "target": {
            "node": 1,
            "path": "translation"
          }
        },
        {
          "sampler": 1,
          "target": {
            "node": 1,
            "path": "rotation"
          }
        },
        {
          "sampler": 2,
          "target": {
            "node": 1,
            "path": "scale"
          }
        }
      ]
    }
  ]
}